{"asset":{"version":"2.0","generator":"Blockbench 4.11.2 glTF exporter"},"scenes":[{"nodes":[2],"name":"blockbench_export"}],"scene":0,"nodes":[{"translation":[0.012500000000000002,0.33750000000000036,0],"name":"Wisp_outline","mesh":0},{"translation":[0.012500000000000002,0.33750000000000036,0],"name":"Wisp","mesh":1},{"children":[0,1]}],"bufferViews":[{"buffer":0,"byteOffset":0,"byteLength":1176,"target":34962,"byteStride":12},{"buffer":0,"byteOffset":1176,"byteLength":1176,"target":34962,"byteStride":12},{"buffer":0,"byteOffset":2352,"byteLength":784,"target":34962,"byteStride":8},{"buffer":0,"byteOffset":3136,"byteLength":252,"target":34963},{"buffer":0,"byteOffset":3388,"byteLength":1176,"target":34962,"byteStride":12},{"buffer":0,"byteOffset":4564,"byteLength":1176,"target":34962,"byteStride":12},{"buffer":0,"byteOffset":5740,"byteLength":784,"target":34962,"byteStride":8},{"buffer":0,"byteOffset":6524,"byteLength":252,"target":34963}],"buffers":[{"byteLength":6776,"uri":"data:application/octet-stream;base64,"}],"accessors":[{"bufferView":0,"componentType":5126,"count":98,"max":[0.16763052344322205,0.16875000298023224,0.16249999403953552],"min":[-0.16763052344322205,-0.16249999403953552,-0.16936977207660675],"type":"VEC3"},{"bufferView":1,"componentType":5126,"count":98,"max":[0.8974426984786987,0.9295909404754639,0.8248584866523743],"min":[-0.9258294701576233,-0.9378467798233032,-0.9475488066673279],"type":"VEC3"},{"bufferView":2,"componentType":5126,"count":98,"max":[0.984375,0.109375],"min":[0.015625,0.015625],"type":"VEC2"},{"bufferView":3,"componentType":5123,"count":126,"max":[97],"min":[0],"type":"SCALAR"},{"bufferView":4,"componentType":5126,"count":98,"max":[0.1551305204629898,0.16249999403953552,0.15000000596046448],"min":[-0.1551305204629898,-0.15625,-0.1568697690963745],"type":"VEC3"},{"bufferView":5,"componentType":5126,"count":98,"max":[0.9292750358581543,0.9332893490791321,0.9512785077095032],"min":[-0.9026428461074829,-0.9243955612182617,-0.829974889755249],"type":"VEC3"},{"bufferView":6,"componentType":5126,"count":98,"max":[0.4609375,0.51171875],"min":[0,0],"type":"VEC2"},{"bufferView":7,"componentType":5123,"count":126,"max":[97],"min":[0],"type":"SCALAR"}],"materials":[{"pbrMetallicRoughness":{"metallicFactor":0,"roughnessFactor":1,"baseColorTexture":{"index":0}},"alphaMode":"MASK","alphaCutoff":0.05},{"pbrMetallicRoughness":{"metallicFactor":0,"roughnessFactor":1,"baseColorTexture":{"index":1}},"alphaMode":"MASK","alphaCutoff":0.05}],"textures":[{"sampler":0,"source":0,"name":"Soul_Outline"},{"sampler":1,"source":1,"name":"Soul_Texture"}],"samplers":[{"magFilter":9728,"minFilter":9728,"wrapS":33071,"wrapT":33071},{"magFilter":9728,"minFilter":9728,"wrapS":33071,"wrapT":33071}],"images":[{"mimeType":"image/png","uri":"data:image/png;base64,"},{"mimeType":"image/png","uri":"data:image/png;base64,"}],"meshes":[{"primitives":[{"mode":4,"attributes":{"POSITION":0,"NORMAL":1,"TEXCOORD_0":2},"indices":3,"material":0}]},{"primitives":[{"mode":4,"attributes":{"POSITION":4,"NORMAL":5,"TEXCOORD_0":6},"indices":7,"material":1}]}]}